<?xml version="1.0" encoding="utf-8"?>
<!-- Generator: Adobe Illustrator 24.1.3, SVG Export Plug-In . SVG Version: 6.00 Build 0)  -->
<svg version="1.1" id="Layer_1" xmlns="http://www.w3.org/2000/svg" xmlns:xlink="http://www.w3.org/1999/xlink" x="0px" y="0px"
	 viewBox="0 0 800 800" style="enable-background:new 0 0 800 800;" xml:space="preserve">
<style type="text/css">
	.st0{fill:none;stroke:#000000;stroke-width:2;stroke-miterlimit:10;}
</style>
<path class="st0" d="M636.21,491.26C598.09,605.03,490.63,687,364.03,687c-53.96,0-104.44-14.89-147.55-40.78"/>
<path class="st0" d="M172.86,185.93C223.62,140.57,290.6,113,364.03,113c109.11,0,204.01,60.89,252.55,150.55"/>
<path class="st0" d="M364.03,655.58c-141.16,0-255.58-114.43-255.58-255.58s114.43-255.58,255.58-255.58"/>
<path class="st0" d="M546.88,563.02c39.99-41.72,64.56-98.33,64.56-160.69c0-59.39-18.04-112.07-50.14-151.52"/>
<path class="st0" d="M668.24,359.96c3,3.89,4.78,8.76,4.78,14.04c0,12.7-10.3,23-23,23s-23-10.3-23-23c0-6.22,2.47-11.86,6.48-16"/>
<path class="st0" d="M700.41,363c2.92-3.08,7.04-5,11.62-5c8.84,0,16,7.16,16,16s-7.16,16-16,16c-5.14,0-9.72-2.43-12.64-6.19"/>
<path class="st0" d="M772.75,380.7c-2.01,2.61-5.17,4.3-8.72,4.3c-6.08,0-11-4.92-11-11s4.92-11,11-11c3.04,0,5.79,1.23,7.78,3.22"
	/>
<path class="st0" d="M68.93,380.83c5.31,2.54,9.65,7.1,11.77,13.09c4.23,11.98-2.05,25.12-14.03,29.35
	c-11.98,4.23-25.12-2.05-29.35-14.03c-2.41-6.83-1.41-14.04,2.13-19.76"/>
<path class="st0" d="M95,542.65c-5.48-0.98-10.29-4.8-12.28-10.43c-2.94-8.33,1.43-17.47,9.76-20.41
	c8.33-2.94,17.47,1.43,20.41,9.76c1.18,3.36,1.18,6.84,0.22,10"/>
<path class="st0" d="M100.97,280.86c-3.26-1.83-5.89-4.81-7.23-8.61c-2.94-8.33,1.43-17.47,9.76-20.41
	c8.33-2.94,17.47,1.43,20.41,9.76c1.47,4.17,1.11,8.53-0.65,12.23"/>
</svg>
